<mxfile host="app.diagrams.net" agent="Mozilla/5.0 (Windows NT 10.0; Win64; x64) AppleWebKit/537.36 (KHTML, like Gecko) Chrome/131.0.0.0 Safari/537.36" version="25.0.3">
  <diagram name="Page-1" id="uQS9ek2D7PSYEIglThoV">
    <mxGraphModel dx="1613" dy="1880" grid="1" gridSize="10" guides="1" tooltips="1" connect="1" arrows="1" fold="1" page="1" pageScale="1" pageWidth="827" pageHeight="1169" math="0" shadow="0">
      <root>
        <mxCell id="0" />
        <mxCell id="1" parent="0" />
        <mxCell id="coH0fR-VVpJx1SOOaJV_-6" value="" style="html=1;whiteSpace=wrap;fillColor=none;" vertex="1" parent="1">
          <mxGeometry x="720" y="-880" width="890" height="70" as="geometry" />
        </mxCell>
        <mxCell id="zd0dRC9yfDdlV3mLB25J-2" value="&lt;h1 style=&quot;font-size: 20px;&quot;&gt;&lt;font style=&quot;font-size: 20px;&quot;&gt;Заметка для ревьюера&lt;/font&gt;&lt;/h1&gt;&lt;p style=&quot;font-size: 20px;&quot;&gt;&lt;font style=&quot;font-size: 20px;&quot;&gt;Текст заметки&lt;/font&gt;&lt;/p&gt;" style="text;html=1;strokeColor=#d6b656;fillColor=#fff2cc;spacing=5;spacingTop=-20;whiteSpace=wrap;overflow=hidden;rounded=0;fontSize=20;" parent="1" vertex="1">
          <mxGeometry x="70" y="-210" width="370" height="170" as="geometry" />
        </mxCell>
        <mxCell id="zd0dRC9yfDdlV3mLB25J-3" value="&lt;h1 style=&quot;font-size: 20px;&quot;&gt;&lt;font style=&quot;font-size: 20px;&quot;&gt;Заметка для ревьюера&lt;/font&gt;&lt;/h1&gt;&lt;p style=&quot;font-size: 20px;&quot;&gt;&lt;font style=&quot;font-size: 20px;&quot;&gt;Текст заметки&lt;/font&gt;&lt;/p&gt;" style="text;html=1;strokeColor=#d6b656;fillColor=#fff2cc;spacing=5;spacingTop=-20;whiteSpace=wrap;overflow=hidden;rounded=0;fontSize=20;" parent="1" vertex="1">
          <mxGeometry x="80" y="-200" width="370" height="170" as="geometry" />
        </mxCell>
        <mxCell id="zd0dRC9yfDdlV3mLB25J-4" value="&lt;h1 style=&quot;font-size: 20px;&quot;&gt;&lt;font style=&quot;font-size: 20px;&quot;&gt;Заметка для ревьюера&lt;/font&gt;&lt;/h1&gt;&lt;p style=&quot;font-size: 20px;&quot;&gt;&lt;font style=&quot;font-size: 20px;&quot;&gt;Текст заметки&lt;/font&gt;&lt;/p&gt;" style="text;html=1;strokeColor=#d6b656;fillColor=#fff2cc;spacing=5;spacingTop=-20;whiteSpace=wrap;overflow=hidden;rounded=0;fontSize=20;" parent="1" vertex="1">
          <mxGeometry x="90" y="-190" width="370" height="170" as="geometry" />
        </mxCell>
        <mxCell id="zd0dRC9yfDdlV3mLB25J-5" value="&lt;h1 style=&quot;font-size: 20px;&quot;&gt;&lt;font style=&quot;font-size: 20px;&quot;&gt;Заметка для ревьюера&lt;/font&gt;&lt;/h1&gt;&lt;p style=&quot;font-size: 20px;&quot;&gt;&lt;font style=&quot;font-size: 20px;&quot;&gt;Текст заметки&lt;/font&gt;&lt;/p&gt;" style="text;html=1;strokeColor=#d6b656;fillColor=#fff2cc;spacing=5;spacingTop=-20;whiteSpace=wrap;overflow=hidden;rounded=0;fontSize=20;" parent="1" vertex="1">
          <mxGeometry x="100" y="-180" width="370" height="170" as="geometry" />
        </mxCell>
        <mxCell id="zd0dRC9yfDdlV3mLB25J-6" value="&lt;h1 style=&quot;font-size: 20px;&quot;&gt;&lt;font style=&quot;font-size: 20px;&quot;&gt;Заметка для ревьюера&lt;/font&gt;&lt;/h1&gt;&lt;p style=&quot;font-size: 20px;&quot;&gt;&lt;font style=&quot;font-size: 20px;&quot;&gt;Текст заметки&lt;/font&gt;&lt;/p&gt;" style="text;html=1;strokeColor=#d6b656;fillColor=#fff2cc;spacing=5;spacingTop=-20;whiteSpace=wrap;overflow=hidden;rounded=0;fontSize=20;" parent="1" vertex="1">
          <mxGeometry x="110" y="-170" width="370" height="170" as="geometry" />
        </mxCell>
        <mxCell id="oFbbETFREsKXqKu5l48W-1" style="edgeStyle=none;rounded=0;orthogonalLoop=1;jettySize=auto;html=1;endArrow=blockThin;endFill=1;" parent="1" edge="1">
          <mxGeometry relative="1" as="geometry">
            <mxPoint x="1119.9999999999998" y="-970" as="targetPoint" />
            <Array as="points">
              <mxPoint x="1049" y="-970" />
            </Array>
            <mxPoint x="919.25" y="-970" as="sourcePoint" />
          </mxGeometry>
        </mxCell>
        <mxCell id="oFbbETFREsKXqKu5l48W-2" value="Авторизация(логин, пароль)" style="edgeLabel;html=1;align=center;verticalAlign=middle;resizable=0;points=[];" parent="oFbbETFREsKXqKu5l48W-1" vertex="1" connectable="0">
          <mxGeometry x="0.0631" y="-3" relative="1" as="geometry">
            <mxPoint x="-7" y="-4" as="offset" />
          </mxGeometry>
        </mxCell>
        <mxCell id="oFbbETFREsKXqKu5l48W-3" value="&lt;span style=&quot;background-color: rgb(255, 255, 255);&quot;&gt;Пользователь&lt;/span&gt;" style="shape=umlLifeline;participant=umlActor;perimeter=lifelinePerimeter;whiteSpace=wrap;html=1;container=1;collapsible=0;recursiveResize=0;verticalAlign=top;spacingTop=36;outlineConnect=0;" parent="1" vertex="1">
          <mxGeometry x="910" y="-1060" width="20" height="920" as="geometry" />
        </mxCell>
        <mxCell id="oFbbETFREsKXqKu5l48W-4" value=":ТВ-каналы" style="shape=umlLifeline;perimeter=lifelinePerimeter;whiteSpace=wrap;html=1;container=1;collapsible=0;recursiveResize=0;outlineConnect=0;" parent="1" vertex="1">
          <mxGeometry x="1499" y="-1060" width="100" height="910" as="geometry" />
        </mxCell>
        <mxCell id="coH0fR-VVpJx1SOOaJV_-41" value="" style="html=1;points=[[0,0,0,0,5],[0,1,0,0,-5],[1,0,0,0,5],[1,1,0,0,-5]];perimeter=orthogonalPerimeter;outlineConnect=0;targetShapes=umlLifeline;portConstraint=eastwest;newEdgeStyle={&quot;curved&quot;:0,&quot;rounded&quot;:0};" vertex="1" parent="oFbbETFREsKXqKu5l48W-4">
          <mxGeometry x="45" y="315" width="10" height="40" as="geometry" />
        </mxCell>
        <mxCell id="coH0fR-VVpJx1SOOaJV_-43" value="" style="html=1;points=[[0,0,0,0,5],[0,1,0,0,-5],[1,0,0,0,5],[1,1,0,0,-5]];perimeter=orthogonalPerimeter;outlineConnect=0;targetShapes=umlLifeline;portConstraint=eastwest;newEdgeStyle={&quot;curved&quot;:0,&quot;rounded&quot;:0};" vertex="1" parent="oFbbETFREsKXqKu5l48W-4">
          <mxGeometry x="45" y="436" width="10" height="40" as="geometry" />
        </mxCell>
        <mxCell id="oFbbETFREsKXqKu5l48W-5" style="edgeStyle=none;rounded=0;orthogonalLoop=1;jettySize=auto;html=1;endArrow=blockThin;endFill=1;" parent="1" source="oFbbETFREsKXqKu5l48W-7" edge="1">
          <mxGeometry relative="1" as="geometry">
            <mxPoint x="1334.9999999999998" y="-962" as="targetPoint" />
            <Array as="points">
              <mxPoint x="1289" y="-963" />
            </Array>
          </mxGeometry>
        </mxCell>
        <mxCell id="oFbbETFREsKXqKu5l48W-6" value="Авторизация(логин, пароль)" style="edgeLabel;html=1;align=center;verticalAlign=middle;resizable=0;points=[];" parent="oFbbETFREsKXqKu5l48W-5" vertex="1" connectable="0">
          <mxGeometry x="0.0981" y="-1" relative="1" as="geometry">
            <mxPoint x="-8" y="-3" as="offset" />
          </mxGeometry>
        </mxCell>
        <mxCell id="oFbbETFREsKXqKu5l48W-7" value="Otium:UI&amp;nbsp;" style="shape=umlLifeline;perimeter=lifelinePerimeter;whiteSpace=wrap;html=1;container=1;collapsible=0;recursiveResize=0;outlineConnect=0;" parent="1" vertex="1">
          <mxGeometry x="1076" y="-1060" width="100" height="920" as="geometry" />
        </mxCell>
        <mxCell id="J6369sCLSahK0wumtBKs-2" value="Авторизация пройдена" style="html=1;verticalAlign=bottom;endArrow=open;dashed=1;endSize=8;curved=0;rounded=0;" parent="oFbbETFREsKXqKu5l48W-7" edge="1" target="coH0fR-VVpJx1SOOaJV_-35">
          <mxGeometry relative="1" as="geometry">
            <mxPoint x="44" y="150" as="sourcePoint" />
            <mxPoint x="-156" y="150" as="targetPoint" />
          </mxGeometry>
        </mxCell>
        <mxCell id="coH0fR-VVpJx1SOOaJV_-14" value="Прочитать подробную информацию&lt;br&gt;о телеканале (id телеканала)" style="html=1;verticalAlign=bottom;endArrow=block;curved=0;rounded=0;" edge="1" parent="oFbbETFREsKXqKu5l48W-7">
          <mxGeometry width="80" relative="1" as="geometry">
            <mxPoint x="-156" y="430" as="sourcePoint" />
            <mxPoint x="44" y="430" as="targetPoint" />
          </mxGeometry>
        </mxCell>
        <mxCell id="coH0fR-VVpJx1SOOaJV_-9" value="Познакомиться с библиотекой&lt;br&gt;&amp;nbsp;телеканалов" style="html=1;verticalAlign=bottom;endArrow=block;curved=0;rounded=0;" edge="1" parent="oFbbETFREsKXqKu5l48W-7">
          <mxGeometry width="80" relative="1" as="geometry">
            <mxPoint x="-156" y="310" as="sourcePoint" />
            <mxPoint x="44" y="310" as="targetPoint" />
          </mxGeometry>
        </mxCell>
        <mxCell id="coH0fR-VVpJx1SOOaJV_-11" value="Библиотека телеканалов" style="html=1;verticalAlign=bottom;endArrow=open;dashed=1;endSize=8;curved=0;rounded=0;exitX=0;exitY=1;exitDx=0;exitDy=-5;exitPerimeter=0;" edge="1" parent="oFbbETFREsKXqKu5l48W-7" source="coH0fR-VVpJx1SOOaJV_-41">
          <mxGeometry relative="1" as="geometry">
            <mxPoint x="477.5" y="350" as="sourcePoint" />
            <mxPoint x="54" y="350" as="targetPoint" />
          </mxGeometry>
        </mxCell>
        <mxCell id="coH0fR-VVpJx1SOOaJV_-17" value="Подробная информация&lt;br&gt;о телеканале" style="html=1;verticalAlign=bottom;endArrow=open;dashed=1;endSize=8;curved=0;rounded=0;" edge="1" parent="oFbbETFREsKXqKu5l48W-7" target="coH0fR-VVpJx1SOOaJV_-35">
          <mxGeometry relative="1" as="geometry">
            <mxPoint x="49.5" y="490.0000000000001" as="sourcePoint" />
            <mxPoint x="-156" y="490" as="targetPoint" />
          </mxGeometry>
        </mxCell>
        <mxCell id="coH0fR-VVpJx1SOOaJV_-36" value="" style="html=1;points=[[0,0,0,0,5],[0,1,0,0,-5],[1,0,0,0,5],[1,1,0,0,-5]];perimeter=orthogonalPerimeter;outlineConnect=0;targetShapes=umlLifeline;portConstraint=eastwest;newEdgeStyle={&quot;curved&quot;:0,&quot;rounded&quot;:0};" vertex="1" parent="oFbbETFREsKXqKu5l48W-7">
          <mxGeometry x="45" y="88" width="10" height="140" as="geometry" />
        </mxCell>
        <mxCell id="coH0fR-VVpJx1SOOaJV_-42" value="" style="html=1;points=[[0,0,0,0,5],[0,1,0,0,-5],[1,0,0,0,5],[1,1,0,0,-5]];perimeter=orthogonalPerimeter;outlineConnect=0;targetShapes=umlLifeline;portConstraint=eastwest;newEdgeStyle={&quot;curved&quot;:0,&quot;rounded&quot;:0};" vertex="1" parent="oFbbETFREsKXqKu5l48W-7">
          <mxGeometry x="45" y="428" width="10" height="64" as="geometry" />
        </mxCell>
        <mxCell id="coH0fR-VVpJx1SOOaJV_-46" value="" style="html=1;points=[[0,0,0,0,5],[0,1,0,0,-5],[1,0,0,0,5],[1,1,0,0,-5]];perimeter=orthogonalPerimeter;outlineConnect=0;targetShapes=umlLifeline;portConstraint=eastwest;newEdgeStyle={&quot;curved&quot;:0,&quot;rounded&quot;:0};" vertex="1" parent="oFbbETFREsKXqKu5l48W-7">
          <mxGeometry x="45" y="676" width="10" height="60" as="geometry" />
        </mxCell>
        <mxCell id="coH0fR-VVpJx1SOOaJV_-49" value="" style="html=1;points=[[0,0,0,0,5],[0,1,0,0,-5],[1,0,0,0,5],[1,1,0,0,-5]];perimeter=orthogonalPerimeter;outlineConnect=0;targetShapes=umlLifeline;portConstraint=eastwest;newEdgeStyle={&quot;curved&quot;:0,&quot;rounded&quot;:0};" vertex="1" parent="oFbbETFREsKXqKu5l48W-7">
          <mxGeometry x="45" y="788" width="10" height="85" as="geometry" />
        </mxCell>
        <mxCell id="oFbbETFREsKXqKu5l48W-8" value=":Пользователь&amp;nbsp;" style="shape=umlLifeline;perimeter=lifelinePerimeter;whiteSpace=wrap;html=1;container=1;collapsible=0;recursiveResize=0;outlineConnect=0;" parent="1" vertex="1">
          <mxGeometry x="1290" y="-1060" width="100" height="910" as="geometry" />
        </mxCell>
        <mxCell id="coH0fR-VVpJx1SOOaJV_-32" value="Запросить удаление телеканала&lt;br&gt;из избранного&lt;br&gt;(тип: телеканал, id телеканала)" style="html=1;verticalAlign=bottom;endArrow=block;curved=0;rounded=0;" edge="1" parent="oFbbETFREsKXqKu5l48W-8" target="coH0fR-VVpJx1SOOaJV_-51">
          <mxGeometry width="80" relative="1" as="geometry">
            <mxPoint x="-158" y="810" as="sourcePoint" />
            <mxPoint x="40" y="810" as="targetPoint" />
          </mxGeometry>
        </mxCell>
        <mxCell id="coH0fR-VVpJx1SOOaJV_-48" value="" style="html=1;points=[[0,0,0,0,5],[0,1,0,0,-5],[1,0,0,0,5],[1,1,0,0,-5]];perimeter=orthogonalPerimeter;outlineConnect=0;targetShapes=umlLifeline;portConstraint=eastwest;newEdgeStyle={&quot;curved&quot;:0,&quot;rounded&quot;:0};" vertex="1" parent="oFbbETFREsKXqKu5l48W-8">
          <mxGeometry x="45" y="686" width="10" height="40" as="geometry" />
        </mxCell>
        <mxCell id="coH0fR-VVpJx1SOOaJV_-51" value="" style="html=1;points=[[0,0,0,0,5],[0,1,0,0,-5],[1,0,0,0,5],[1,1,0,0,-5]];perimeter=orthogonalPerimeter;outlineConnect=0;targetShapes=umlLifeline;portConstraint=eastwest;newEdgeStyle={&quot;curved&quot;:0,&quot;rounded&quot;:0};" vertex="1" parent="oFbbETFREsKXqKu5l48W-8">
          <mxGeometry x="45" y="807" width="10" height="60" as="geometry" />
        </mxCell>
        <mxCell id="oFbbETFREsKXqKu5l48W-9" value="&lt;h1 style=&quot;font-size: 30px;&quot;&gt;&lt;span style=&quot;font-size: 30px;&quot;&gt;Диаграмма&amp;nbsp;последовательности&lt;/span&gt;&lt;/h1&gt;" style="text;html=1;strokeColor=#FF8000;fillColor=#FFE6CC;spacing=5;spacingTop=-20;whiteSpace=wrap;overflow=hidden;rounded=0;fontSize=30;align=center;" parent="1" vertex="1">
          <mxGeometry x="880" y="-1150" width="710" height="60" as="geometry" />
        </mxCell>
        <mxCell id="oFbbETFREsKXqKu5l48W-11" value="&lt;h1&gt;&lt;font style=&quot;font-size: 40px;&quot;&gt;Задание&lt;/font&gt;&lt;/h1&gt;&lt;p style=&quot;font-size: 20px;&quot;&gt;&lt;font style=&quot;font-size: 20px;&quot;&gt;Составьте диаграмму последовательности в нотации.&lt;/font&gt;&lt;/p&gt;&lt;p style=&quot;font-size: 20px;&quot;&gt;&lt;font style=&quot;font-size: 20px;&quot;&gt;1. Проанализируйте существующее API, которое включает в себя следующий сценарий: авторизация пользователя для доступа к медиатеке, просмотр медиатеки фильмов и получении информации о нужном фильме и работе пользователя с избранными фильмами.&amp;nbsp;&lt;/font&gt;&lt;/p&gt;&lt;p style=&quot;font-size: 20px;&quot;&gt;&lt;font style=&quot;font-size: 20px;&quot;&gt;2. Вам необходимо построить диаграмму последовательностях для телеканалов по аналогии с сценарием взаимодействия пользователя с фильмами. Справа вы видите начало диаграммы, где уже выделен актор, объекты и обозначены несколько сообщений.&lt;/font&gt;&lt;/p&gt;&lt;p style=&quot;font-size: 20px;&quot;&gt;&lt;font style=&quot;font-size: 20px;&quot;&gt;3. Добавьте на диаграмму следующие действия, которые может выполнить пользователь:&amp;nbsp;&lt;/font&gt;&lt;/p&gt;&lt;ul style=&quot;font-size: 18px;&quot;&gt;&lt;li&gt;авторизоваться в системе&lt;/li&gt;&lt;li&gt;познакомиться с библиотекой телеканалов&lt;/li&gt;&lt;li&gt;прочитать подробную информацию о телеканале&lt;/li&gt;&lt;li&gt;добавить в избранное телеканал (это действие возможно выполнить только с детальной страницы).&lt;/li&gt;&lt;li&gt;посмотреть список избранных телеканалов&lt;/li&gt;&lt;li&gt;удалить телеканал из списка избранного&lt;/li&gt;&lt;/ul&gt;&lt;p style=&quot;font-size: 20px;&quot;&gt;&lt;font style=&quot;font-size: 20px;&quot;&gt;&amp;nbsp;Не забудьте отметить фокус управления.&lt;/font&gt;&lt;/p&gt;&lt;p style=&quot;font-size: 20px;&quot;&gt;&lt;font style=&quot;font-size: 20px;&quot;&gt;4.Если вам не хватает информации в задании, то вы можете ее самостоятельно добавить в виде допущения.&lt;/font&gt;&lt;/p&gt;&lt;p style=&quot;font-size: 20px;&quot;&gt;&lt;i&gt;&lt;font style=&quot;font-size: 20px;&quot;&gt;Помните, что вы всегда можете оставить дополнительную информацию со своими размышлениями ревьюеру в виде пометок. Просто возьмите одну из карточек ниже.&amp;nbsp;&lt;/font&gt;&lt;/i&gt;&lt;/p&gt;&lt;p style=&quot;font-size: 20px;&quot;&gt;&lt;font style=&quot;font-size: 20px;&quot;&gt;5. Когда диаграмма последовательности будет готова, сохраните полученный файл в формате .drawio.&lt;/font&gt;&lt;/p&gt;" style="text;html=1;strokeColor=#82b366;fillColor=#d5e8d4;spacing=5;spacingTop=-20;whiteSpace=wrap;overflow=hidden;rounded=0;fontSize=16;" parent="1" vertex="1">
          <mxGeometry x="70" y="-1130" width="600" height="910" as="geometry" />
        </mxCell>
        <mxCell id="coH0fR-VVpJx1SOOaJV_-2" value="Авторизация не пройдена" style="html=1;verticalAlign=bottom;endArrow=open;dashed=1;endSize=8;curved=0;rounded=0;" edge="1" parent="1" target="coH0fR-VVpJx1SOOaJV_-35">
          <mxGeometry relative="1" as="geometry">
            <mxPoint x="1120" y="-834.05" as="sourcePoint" />
            <mxPoint x="920" y="-834.05" as="targetPoint" />
          </mxGeometry>
        </mxCell>
        <mxCell id="coH0fR-VVpJx1SOOaJV_-3" value="alt" style="shape=umlFrame;whiteSpace=wrap;html=1;pointerEvents=0;" vertex="1" parent="1">
          <mxGeometry x="720" y="-950" width="890" height="70" as="geometry" />
        </mxCell>
        <mxCell id="coH0fR-VVpJx1SOOaJV_-1" value="Пользователь не найден" style="html=1;verticalAlign=bottom;endArrow=open;dashed=1;endSize=8;curved=0;rounded=0;" edge="1" parent="1">
          <mxGeometry relative="1" as="geometry">
            <mxPoint x="1339.5" y="-850" as="sourcePoint" />
            <mxPoint x="1130" y="-850" as="targetPoint" />
          </mxGeometry>
        </mxCell>
        <mxCell id="coH0fR-VVpJx1SOOaJV_-5" value="[пользователь авторизован]" style="text;html=1;align=center;verticalAlign=middle;resizable=0;points=[];autosize=1;strokeColor=none;fillColor=none;" vertex="1" parent="1">
          <mxGeometry x="730" y="-910" width="180" height="30" as="geometry" />
        </mxCell>
        <mxCell id="coH0fR-VVpJx1SOOaJV_-7" value="[иначе]" style="text;html=1;align=center;verticalAlign=middle;whiteSpace=wrap;rounded=0;" vertex="1" parent="1">
          <mxGeometry x="790" y="-850" width="60" height="30" as="geometry" />
        </mxCell>
        <mxCell id="J6369sCLSahK0wumtBKs-1" value="Пользователь найден" style="html=1;verticalAlign=bottom;endArrow=open;dashed=1;endSize=8;curved=0;rounded=0;" parent="1" edge="1">
          <mxGeometry relative="1" as="geometry">
            <mxPoint x="1339.75" y="-920" as="sourcePoint" />
            <mxPoint x="1130.25" y="-920" as="targetPoint" />
          </mxGeometry>
        </mxCell>
        <mxCell id="coH0fR-VVpJx1SOOaJV_-10" value="Запросить библиотеку телеканалов" style="html=1;verticalAlign=bottom;endArrow=block;curved=0;rounded=0;entryX=0;entryY=0;entryDx=0;entryDy=5;entryPerimeter=0;" edge="1" parent="1" source="coH0fR-VVpJx1SOOaJV_-38" target="coH0fR-VVpJx1SOOaJV_-41">
          <mxGeometry width="80" relative="1" as="geometry">
            <mxPoint x="1128.25" y="-740" as="sourcePoint" />
            <mxPoint x="1540" y="-740" as="targetPoint" />
          </mxGeometry>
        </mxCell>
        <mxCell id="coH0fR-VVpJx1SOOaJV_-13" value="Библиотека телеканалов" style="html=1;verticalAlign=bottom;endArrow=open;dashed=1;endSize=8;curved=0;rounded=0;" edge="1" parent="1" target="coH0fR-VVpJx1SOOaJV_-35">
          <mxGeometry relative="1" as="geometry">
            <mxPoint x="1125.5" y="-700.6199999999999" as="sourcePoint" />
            <mxPoint x="930" y="-700" as="targetPoint" />
          </mxGeometry>
        </mxCell>
        <mxCell id="coH0fR-VVpJx1SOOaJV_-15" value="Запросить подробную информацию о телеканале (id телеканала)" style="html=1;verticalAlign=bottom;endArrow=block;curved=0;rounded=0;entryX=0;entryY=0;entryDx=0;entryDy=5;entryPerimeter=0;" edge="1" parent="1" target="coH0fR-VVpJx1SOOaJV_-43">
          <mxGeometry width="80" relative="1" as="geometry">
            <mxPoint x="1130" y="-620" as="sourcePoint" />
            <mxPoint x="1540" y="-620" as="targetPoint" />
          </mxGeometry>
        </mxCell>
        <mxCell id="coH0fR-VVpJx1SOOaJV_-16" value="Подробная информация о телеканале" style="html=1;verticalAlign=bottom;endArrow=open;dashed=1;endSize=8;curved=0;rounded=0;" edge="1" parent="1" source="coH0fR-VVpJx1SOOaJV_-43">
          <mxGeometry relative="1" as="geometry">
            <mxPoint x="1540" y="-586" as="sourcePoint" />
            <mxPoint x="1130" y="-586" as="targetPoint" />
          </mxGeometry>
        </mxCell>
        <mxCell id="coH0fR-VVpJx1SOOaJV_-18" value="opt" style="shape=umlFrame;whiteSpace=wrap;html=1;pointerEvents=0;" vertex="1" parent="1">
          <mxGeometry x="720" y="-540" width="880" height="120" as="geometry" />
        </mxCell>
        <mxCell id="coH0fR-VVpJx1SOOaJV_-19" value="Добавить телеканал в избранное&lt;br&gt;(тип: телеканал, id телеканала)" style="html=1;verticalAlign=bottom;endArrow=block;curved=0;rounded=0;" edge="1" parent="1">
          <mxGeometry x="-0.0024" width="80" relative="1" as="geometry">
            <mxPoint x="920" y="-500" as="sourcePoint" />
            <mxPoint x="1120" y="-500" as="targetPoint" />
            <mxPoint as="offset" />
          </mxGeometry>
        </mxCell>
        <mxCell id="coH0fR-VVpJx1SOOaJV_-20" value="Запросить добавление телеканала&lt;br&gt;&amp;nbsp;в избранное&lt;br&gt;(тип: телеканал, id телеканала)" style="html=1;verticalAlign=bottom;endArrow=block;curved=0;rounded=0;" edge="1" parent="1" target="coH0fR-VVpJx1SOOaJV_-45">
          <mxGeometry x="-0.0024" width="80" relative="1" as="geometry">
            <mxPoint x="1130" y="-480.62" as="sourcePoint" />
            <mxPoint x="1340" y="-480.62" as="targetPoint" />
            <mxPoint as="offset" />
          </mxGeometry>
        </mxCell>
        <mxCell id="coH0fR-VVpJx1SOOaJV_-23" value="Телеканал успешно добавлен&lt;br&gt;&amp;nbsp;в избранное" style="html=1;verticalAlign=bottom;endArrow=open;dashed=1;endSize=8;curved=0;rounded=0;" edge="1" parent="1" target="coH0fR-VVpJx1SOOaJV_-44">
          <mxGeometry relative="1" as="geometry">
            <mxPoint x="1342.25" y="-437" as="sourcePoint" />
            <mxPoint x="1140" y="-437" as="targetPoint" />
          </mxGeometry>
        </mxCell>
        <mxCell id="coH0fR-VVpJx1SOOaJV_-24" value="Телеканал успешно добавлен&lt;br&gt;&amp;nbsp;в избранное" style="html=1;verticalAlign=bottom;endArrow=open;dashed=1;endSize=8;curved=0;rounded=0;" edge="1" parent="1" target="coH0fR-VVpJx1SOOaJV_-35">
          <mxGeometry relative="1" as="geometry">
            <mxPoint x="1125.5" y="-430" as="sourcePoint" />
            <mxPoint x="920" y="-430" as="targetPoint" />
          </mxGeometry>
        </mxCell>
        <mxCell id="coH0fR-VVpJx1SOOaJV_-25" value="[пользователь находится на&lt;br&gt;&amp;nbsp;детальной странице]" style="text;html=1;align=center;verticalAlign=middle;resizable=0;points=[];autosize=1;strokeColor=none;fillColor=none;" vertex="1" parent="1">
          <mxGeometry x="730" y="-477" width="180" height="40" as="geometry" />
        </mxCell>
        <mxCell id="coH0fR-VVpJx1SOOaJV_-26" value="Посмотреть список избранных &lt;br&gt;телеканалов" style="html=1;verticalAlign=bottom;endArrow=block;curved=0;rounded=0;" edge="1" parent="1">
          <mxGeometry width="80" relative="1" as="geometry">
            <mxPoint x="920" y="-380" as="sourcePoint" />
            <mxPoint x="1120" y="-380" as="targetPoint" />
          </mxGeometry>
        </mxCell>
        <mxCell id="coH0fR-VVpJx1SOOaJV_-27" value="Запросить список избранного &lt;br&gt;(тип: телеканал)" style="html=1;verticalAlign=bottom;endArrow=block;curved=0;rounded=0;" edge="1" parent="1" target="coH0fR-VVpJx1SOOaJV_-48">
          <mxGeometry width="80" relative="1" as="geometry">
            <mxPoint x="1130" y="-370" as="sourcePoint" />
            <mxPoint x="1330" y="-370" as="targetPoint" />
          </mxGeometry>
        </mxCell>
        <mxCell id="coH0fR-VVpJx1SOOaJV_-28" value="Список избранных телеканалов" style="html=1;verticalAlign=bottom;endArrow=open;dashed=1;endSize=8;curved=0;rounded=0;" edge="1" parent="1" source="coH0fR-VVpJx1SOOaJV_-48">
          <mxGeometry relative="1" as="geometry">
            <mxPoint x="1330" y="-340" as="sourcePoint" />
            <mxPoint x="1130" y="-340" as="targetPoint" />
          </mxGeometry>
        </mxCell>
        <mxCell id="coH0fR-VVpJx1SOOaJV_-30" value="Список избранных телеканалов" style="html=1;verticalAlign=bottom;endArrow=open;dashed=1;endSize=8;curved=0;rounded=0;" edge="1" parent="1" target="coH0fR-VVpJx1SOOaJV_-35">
          <mxGeometry relative="1" as="geometry">
            <mxPoint x="1120" y="-330" as="sourcePoint" />
            <mxPoint x="930" y="-330" as="targetPoint" />
          </mxGeometry>
        </mxCell>
        <mxCell id="coH0fR-VVpJx1SOOaJV_-31" value="Удалить телеканал из избранного&lt;br&gt;(тип: телеканал, id телеканала)" style="html=1;verticalAlign=bottom;endArrow=block;curved=0;rounded=0;" edge="1" parent="1">
          <mxGeometry width="80" relative="1" as="geometry">
            <mxPoint x="920" y="-270" as="sourcePoint" />
            <mxPoint x="1120" y="-270" as="targetPoint" />
          </mxGeometry>
        </mxCell>
        <mxCell id="coH0fR-VVpJx1SOOaJV_-33" value="Телеканал успешно удален&lt;br&gt;&amp;nbsp;из избранного" style="html=1;verticalAlign=bottom;endArrow=open;dashed=1;endSize=8;curved=0;rounded=0;" edge="1" parent="1" source="coH0fR-VVpJx1SOOaJV_-51">
          <mxGeometry relative="1" as="geometry">
            <mxPoint x="1330" y="-200" as="sourcePoint" />
            <mxPoint x="1130" y="-200" as="targetPoint" />
          </mxGeometry>
        </mxCell>
        <mxCell id="coH0fR-VVpJx1SOOaJV_-34" value="Телеканал успешно удален&lt;br&gt;&amp;nbsp;из избранного" style="html=1;verticalAlign=bottom;endArrow=open;dashed=1;endSize=8;curved=0;rounded=0;" edge="1" parent="1" target="coH0fR-VVpJx1SOOaJV_-35">
          <mxGeometry relative="1" as="geometry">
            <mxPoint x="1120" y="-190" as="sourcePoint" />
            <mxPoint x="910" y="-190" as="targetPoint" />
          </mxGeometry>
        </mxCell>
        <mxCell id="coH0fR-VVpJx1SOOaJV_-35" value="" style="html=1;points=[[0,0,0,0,5],[0,1,0,0,-5],[1,0,0,0,5],[1,1,0,0,-5]];perimeter=orthogonalPerimeter;outlineConnect=0;targetShapes=umlLifeline;portConstraint=eastwest;newEdgeStyle={&quot;curved&quot;:0,&quot;rounded&quot;:0};" vertex="1" parent="1">
          <mxGeometry x="915" y="-980" width="10" height="800" as="geometry" />
        </mxCell>
        <mxCell id="coH0fR-VVpJx1SOOaJV_-37" value="" style="html=1;points=[[0,0,0,0,5],[0,1,0,0,-5],[1,0,0,0,5],[1,1,0,0,-5]];perimeter=orthogonalPerimeter;outlineConnect=0;targetShapes=umlLifeline;portConstraint=eastwest;newEdgeStyle={&quot;curved&quot;:0,&quot;rounded&quot;:0};" vertex="1" parent="1">
          <mxGeometry x="1335" y="-967" width="10" height="124" as="geometry" />
        </mxCell>
        <mxCell id="coH0fR-VVpJx1SOOaJV_-38" value="" style="html=1;points=[[0,0,0,0,5],[0,1,0,0,-5],[1,0,0,0,5],[1,1,0,0,-5]];perimeter=orthogonalPerimeter;outlineConnect=0;targetShapes=umlLifeline;portConstraint=eastwest;newEdgeStyle={&quot;curved&quot;:0,&quot;rounded&quot;:0};" vertex="1" parent="1">
          <mxGeometry x="1121" y="-755" width="10" height="60" as="geometry" />
        </mxCell>
        <mxCell id="coH0fR-VVpJx1SOOaJV_-44" value="" style="html=1;points=[[0,0,0,0,5],[0,1,0,0,-5],[1,0,0,0,5],[1,1,0,0,-5]];perimeter=orthogonalPerimeter;outlineConnect=0;targetShapes=umlLifeline;portConstraint=eastwest;newEdgeStyle={&quot;curved&quot;:0,&quot;rounded&quot;:0};" vertex="1" parent="1">
          <mxGeometry x="1121" y="-503" width="10" height="75" as="geometry" />
        </mxCell>
        <mxCell id="coH0fR-VVpJx1SOOaJV_-45" value="" style="html=1;points=[[0,0,0,0,5],[0,1,0,0,-5],[1,0,0,0,5],[1,1,0,0,-5]];perimeter=orthogonalPerimeter;outlineConnect=0;targetShapes=umlLifeline;portConstraint=eastwest;newEdgeStyle={&quot;curved&quot;:0,&quot;rounded&quot;:0};" vertex="1" parent="1">
          <mxGeometry x="1335" y="-481.5" width="10" height="45.5" as="geometry" />
        </mxCell>
      </root>
    </mxGraphModel>
  </diagram>
</mxfile>
